<svg xmlns="http://www.w3.org/2000/svg" width="57" height="58" viewBox="0 0 57 58"><defs><mask id="483cb" width="2" height="2" x="-1" y="-1"><path fill="#fff" d="M0 0h57v53H0z"/><path d="M10.026.4h36.985c5.523 0 10 4.478 10 10v32.021c0 5.523-4.477 10-10 10H10.026c-5.523 0-10-4.477-10-10v-32.02c0-5.523 4.477-10 10-10z"/></mask><filter id="483ca" width="77.3" height="78" x="-10" y="-10" filterUnits="userSpaceOnUse"><feOffset dx=".3" dy="5" in="SourceGraphic" result="FeOffset1023Out"/><feGaussianBlur in="FeOffset1023Out" result="FeGaussianBlur1024Out" stdDeviation="0 0"/></filter><linearGradient id="483cc" x1="49.01" x2="8.03" y1="52.42" y2=".4" gradientUnits="userSpaceOnUse"><stop offset="0" stop-color="#66c4dc"/><stop offset=".5" stop-color="#40b1ce"/><stop offset="1" stop-color="#0c98bb"/></linearGradient><filter id="483cd" width="200%" height="200%" x="-50%" y="-50%"><feGaussianBlur in="SourceGraphic" result="FeGaussianBlur1046Out" stdDeviation="0 0"/></filter><mask id="483ce"><path fill="#fff" d="M10.026.4h36.985c5.523 0 10 4.478 10 10v32.021c0 5.523-4.477 10-10 10H10.026c-5.523 0-10-4.477-10-10v-32.02c0-5.523 4.477-10 10-10z"/></mask><mask id="483cg" width="2.11" height="2.07" x="-1.05" y="-1.04"><path fill="#fff" d="M8 12h21v30H8z"/><path d="M17.093 14.05l-7.537 9.564c-.974.944-.284 2.557 1.092 2.557h4.72v13.196c0 .827.692 1.498 1.545 1.498h2.544c.853 0 1.545-.67 1.545-1.498V26.171h4.72c1.376 0 2.066-1.613 1.092-2.557l-7.537-9.565a1.58 1.58 0 0 0-2.184 0z"/></mask><filter id="483cf" width="41.2" height="53" x="-2" y="2" filterUnits="userSpaceOnUse"><feOffset dx=".2" dy="3" in="SourceGraphic" result="FeOffset1061Out"/><feGaussianBlur in="FeOffset1061Out" result="FeGaussianBlur1062Out" stdDeviation="0 0"/></filter><mask id="483ci" width="2.11" height="2.07" x="-1.05" y="-1.04"><path fill="#fff" d="M28 12h21v30H28z"/><path d="M39.912 40.426l7.548-9.566c.975-.943.284-2.557-1.094-2.557h-4.727V15.108c0-.827-.693-1.498-1.547-1.498h-2.548c-.854 0-1.547.67-1.547 1.498v13.195H31.27c-1.378 0-2.068 1.614-1.094 2.557l7.548 9.566a1.583 1.583 0 0 0 2.188 0z"/></mask><filter id="483ch" width="41.2" height="53" x="18" y="2" filterUnits="userSpaceOnUse"><feOffset dx=".2" dy="3" in="SourceGraphic" result="FeOffset1077Out"/><feGaussianBlur in="FeOffset1077Out" result="FeGaussianBlur1078Out" stdDeviation="0 0"/></filter></defs><g><g><g filter="url(#483ca)"><path fill="none" d="M10.026.4h36.985c5.523 0 10 4.478 10 10v32.021c0 5.523-4.477 10-10 10H10.026c-5.523 0-10-4.477-10-10v-32.02c0-5.523 4.477-10 10-10z" mask="url(&quot;#483cb&quot;)"/><path fill="#048b97" d="M10.026.4h36.985c5.523 0 10 4.478 10 10v32.021c0 5.523-4.477 10-10 10H10.026c-5.523 0-10-4.477-10-10v-32.02c0-5.523 4.477-10 10-10z"/></g><path fill="#ebeef3" d="M10.026.4h36.985c5.523 0 10 4.478 10 10v32.021c0 5.523-4.477 10-10 10H10.026c-5.523 0-10-4.477-10-10v-32.02c0-5.523 4.477-10 10-10z"/><path fill="url(#483cc)" d="M10.026.4h36.985c5.523 0 10 4.478 10 10v32.021c0 5.523-4.477 10-10 10H10.026c-5.523 0-10-4.477-10-10v-32.02c0-5.523 4.477-10 10-10z"/><path fill="#fff" fill-opacity=".58" d="M0 58V-5h57v19.932c-.245-5.305-4.623-9.531-9.99-9.531H10.027c-5.523 0-10 4.477-10 10v32.02c0 5.523 4.477 10 10 10h36.985c5.366 0 9.744-4.226 9.989-9.531V58zm57.01-10.579v-32.02c0-.157-.003-.314-.01-.469V47.89c.007-.156.01-.312.01-.469z" filter="url(#483cd)" mask="url(&quot;#483ce&quot;)"/></g><g><g filter="url(#483cf)"><path fill="none" stroke="#000" stroke-opacity=".33" stroke-width="2" d="M17.093 14.05l-7.537 9.564c-.974.944-.284 2.557 1.092 2.557h4.72v13.196c0 .827.692 1.498 1.545 1.498h2.544c.853 0 1.545-.67 1.545-1.498V26.171v0h4.72c1.376 0 2.066-1.613 1.092-2.557l-7.537-9.565a1.58 1.58 0 0 0-2.184 0z" mask="url(&quot;#483cg&quot;)"/><path fill-opacity=".33" d="M17.093 14.05l-7.537 9.564c-.974.944-.284 2.557 1.092 2.557h4.72v13.196c0 .827.692 1.498 1.545 1.498h2.544c.853 0 1.545-.67 1.545-1.498V26.171h4.72c1.376 0 2.066-1.613 1.092-2.557l-7.537-9.565a1.58 1.58 0 0 0-2.184 0z"/></g><path fill="#fff" d="M17.093 14.05l-7.537 9.564c-.974.944-.284 2.557 1.092 2.557h4.72v13.196c0 .827.692 1.498 1.545 1.498h2.544c.853 0 1.545-.67 1.545-1.498V26.171h4.72c1.376 0 2.066-1.613 1.092-2.557l-7.537-9.565a1.58 1.58 0 0 0-2.184 0z"/></g><g><g filter="url(#483ch)"><path fill="none" stroke="#000" stroke-opacity=".33" stroke-width="2" d="M39.912 40.426l7.548-9.566c.975-.943.284-2.557-1.094-2.557h-4.727v0-13.195c0-.827-.693-1.498-1.547-1.498h-2.548c-.854 0-1.547.67-1.547 1.498v13.195H31.27c-1.378 0-2.068 1.614-1.094 2.557l7.548 9.566a1.583 1.583 0 0 0 2.188 0z" mask="url(&quot;#483ci&quot;)"/><path fill-opacity=".33" d="M39.912 40.426l7.548-9.566c.975-.943.284-2.557-1.094-2.557h-4.727V15.108c0-.827-.693-1.498-1.547-1.498h-2.548c-.854 0-1.547.67-1.547 1.498v13.195H31.27c-1.378 0-2.068 1.614-1.094 2.557l7.548 9.566a1.583 1.583 0 0 0 2.188 0z"/></g><path fill="#fff" d="M39.912 40.426l7.548-9.566c.975-.943.284-2.557-1.094-2.557h-4.727V15.108c0-.827-.693-1.498-1.547-1.498h-2.548c-.854 0-1.547.67-1.547 1.498v13.195H31.27c-1.378 0-2.068 1.614-1.094 2.557l7.548 9.566a1.583 1.583 0 0 0 2.188 0z"/></g></g></svg>