<svg xmlns="http://www.w3.org/2000/svg" width="55" height="56" viewBox="0 0 55 56"><defs><mask id="sv2qb" width="2" height="2" x="-1" y="-1"><path fill="#fff" d="M0 0h55v51H0z"/><path d="M10.651.84h34.341c5.523 0 10 4.477 10 10v29.965c0 5.522-4.477 10-10 10h-34.34c-5.524 0-10-4.478-10-10V10.84c0-5.523 4.476-10 10-10z"/></mask><filter id="sv2qa" width="75.3" height="76" x="-10" y="-10" filterUnits="userSpaceOnUse"><feOffset dx=".3" dy="5" in="SourceGraphic" result="FeOffset1265Out"/><feGaussianBlur in="FeOffset1265Out" result="FeGaussianBlur1266Out" stdDeviation="0 0"/></filter><filter id="sv2qc" width="200%" height="200%" x="-50%" y="-50%"><feGaussianBlur in="SourceGraphic" result="FeGaussianBlur1272Out" stdDeviation="0 0"/></filter><mask id="sv2qd"><path fill="#fff" d="M10.651.84h34.341c5.523 0 10 4.477 10 10v29.965c0 5.522-4.477 10-10 10h-34.34c-5.524 0-10-4.478-10-10V10.84c0-5.523 4.476-10 10-10z"/></mask></defs><g><g><g filter="url(#sv2qa)"><path fill="none" d="M10.651.84h34.341c5.523 0 10 4.477 10 10v29.965c0 5.522-4.477 10-10 10h-34.34c-5.524 0-10-4.478-10-10V10.84c0-5.523 4.476-10 10-10z" mask="url(&quot;#sv2qb&quot;)"/><path fill="#5c5c5c" fill-opacity=".55" d="M10.651.84h34.341c5.523 0 10 4.477 10 10v29.965c0 5.522-4.477 10-10 10h-34.34c-5.524 0-10-4.478-10-10V10.84c0-5.523 4.476-10 10-10z"/></g><path fill="#fff" d="M10.651.84h34.341c5.523 0 10 4.477 10 10v29.965c0 5.522-4.477 10-10 10h-34.34c-5.524 0-10-4.478-10-10V10.84c0-5.523 4.476-10 10-10z"/><path fill="#fff" d="M10.651.84h34.341c5.523 0 10 4.477 10 10v29.965c0 5.522-4.477 10-10 10h-34.34c-5.524 0-10-4.478-10-10V10.84c0-5.523 4.476-10 10-10z"/><path fill="#fff" fill-opacity=".58" d="M0 56V-5h55v61zm.651-40.16v29.965c0 5.522 4.477 10 10 10h34.341c5.523 0 10-4.478 10-10V15.84c0-5.523-4.477-10-10-10h-34.34c-5.524 0-10 4.477-10 10z" filter="url(#sv2qc)" mask="url(&quot;#sv2qd&quot;)"/></g><g><path fill="#22252c" d="M14 13h30v3H14zm0 8h24v3H14zm0 7h19.714v3H14zm0 8h26.571v3H14z"/></g></g></svg>