<svg xmlns="http://www.w3.org/2000/svg" width="55" height="56" viewBox="0 0 55 56"><defs><mask id="4ru4b" width="2" height="2" x="-1" y="-1"><path fill="#fff" d="M0 0h55v51H0z"/><path d="M10.238.84H44.58c5.523 0 10 4.477 10 10v29.965c0 5.522-4.477 10-10 10H10.24c-5.524 0-10-4.478-10-10V10.84c0-5.523 4.476-10 10-10z"/></mask><filter id="4ru4a" width="75.3" height="76" x="-10" y="-10" filterUnits="userSpaceOnUse"><feOffset dx=".3" dy="5" in="SourceGraphic" result="FeOffset1233Out"/><feGaussianBlur in="FeOffset1233Out" result="FeGaussianBlur1234Out" stdDeviation="0 0"/></filter><filter id="4ru4c" width="200%" height="200%" x="-50%" y="-50%"><feGaussianBlur in="SourceGraphic" result="FeGaussianBlur1240Out" stdDeviation="0 0"/></filter><mask id="4ru4d"><path fill="#fff" d="M10.238.84H44.58c5.523 0 10 4.477 10 10v29.965c0 5.522-4.477 10-10 10H10.24c-5.524 0-10-4.478-10-10V10.84c0-5.523 4.476-10 10-10z"/></mask></defs><g><g><g filter="url(#4ru4a)"><path fill="none" d="M10.238.84H44.58c5.523 0 10 4.477 10 10v29.965c0 5.522-4.477 10-10 10H10.24c-5.524 0-10-4.478-10-10V10.84c0-5.523 4.476-10 10-10z" mask="url(&quot;#4ru4b&quot;)"/><path fill="#5c5c5c" fill-opacity=".55" d="M10.238.84H44.58c5.523 0 10 4.477 10 10v29.965c0 5.522-4.477 10-10 10H10.24c-5.524 0-10-4.478-10-10V10.84c0-5.523 4.476-10 10-10z"/></g><path fill="#fff" d="M10.238.84H44.58c5.523 0 10 4.477 10 10v29.965c0 5.522-4.477 10-10 10H10.24c-5.524 0-10-4.478-10-10V10.84c0-5.523 4.476-10 10-10z"/><path fill="#fff" d="M10.238.84H44.58c5.523 0 10 4.477 10 10v29.965c0 5.522-4.477 10-10 10H10.24c-5.524 0-10-4.478-10-10V10.84c0-5.523 4.476-10 10-10z"/><path fill="#fff" fill-opacity=".58" d="M0 56V-5h55v61zm.238-40.16v29.965c0 5.522 4.477 10 10 10H44.58c5.523 0 10-4.478 10-10V15.84c0-5.523-4.477-10-10-10H10.24c-5.524 0-10 4.477-10 10z" filter="url(#4ru4c)" mask="url(&quot;#4ru4d&quot;)"/></g><g><g><text dominant-baseline="text-before-edge" style="text-transform:uppercase" fill="#22252c" font-family="'Poppins-SemiBold','Poppins-SemiBold'" font-size="51.64" font-style="none" font-weight="400" transform="translate(13 14)"><tspan style="font-kerning:normal">A</tspan><tspan style="font-kerning:normal">-</tspan></text></g></g></g></svg>