<svg xmlns="http://www.w3.org/2000/svg" width="56" height="56" viewBox="0 0 56 56"><defs><mask id="cjbsb" width="2" height="2" x="-1" y="-1"><path fill="#fff" d="M0 0h56v51H0z"/><path d="M10.825.84h34.341c5.523 0 10 4.477 10 10v29.965c0 5.522-4.477 10-10 10h-34.34c-5.523 0-10-4.478-10-10V10.84c0-5.523 4.477-10 10-10z"/></mask><filter id="cjbsa" width="76.3" height="76" x="-10" y="-10" filterUnits="userSpaceOnUse"><feOffset dx=".3" dy="5" in="SourceGraphic" result="FeOffset1201Out"/><feGaussianBlur in="FeOffset1201Out" result="FeGaussianBlur1202Out" stdDeviation="0 0"/></filter><filter id="cjbsc" width="200%" height="200%" x="-50%" y="-50%"><feGaussianBlur in="SourceGraphic" result="FeGaussianBlur1208Out" stdDeviation="0 0"/></filter><mask id="cjbsd"><path fill="#fff" d="M10.825.84h34.341c5.523 0 10 4.477 10 10v29.965c0 5.522-4.477 10-10 10h-34.34c-5.523 0-10-4.478-10-10V10.84c0-5.523 4.477-10 10-10z"/></mask></defs><g><g><g filter="url(#cjbsa)"><path fill="none" d="M10.825.84h34.341c5.523 0 10 4.477 10 10v29.965c0 5.522-4.477 10-10 10h-34.34c-5.523 0-10-4.478-10-10V10.84c0-5.523 4.477-10 10-10z" mask="url(&quot;#cjbsb&quot;)"/><path fill="#5c5c5c" fill-opacity=".55" d="M10.825.84h34.341c5.523 0 10 4.477 10 10v29.965c0 5.522-4.477 10-10 10h-34.34c-5.523 0-10-4.478-10-10V10.84c0-5.523 4.477-10 10-10z"/></g><path fill="#fff" d="M10.825.84h34.341c5.523 0 10 4.477 10 10v29.965c0 5.522-4.477 10-10 10h-34.34c-5.523 0-10-4.478-10-10V10.84c0-5.523 4.477-10 10-10z"/><path fill="#fff" d="M10.825.84h34.341c5.523 0 10 4.477 10 10v29.965c0 5.522-4.477 10-10 10h-34.34c-5.523 0-10-4.478-10-10V10.84c0-5.523 4.477-10 10-10z"/><path fill="#fff" fill-opacity=".58" d="M0 56V-5h56v61zm.825-40.16v29.965c0 5.522 4.478 10 10 10h34.341c5.523 0 10-4.478 10-10V15.84c0-5.523-4.477-10-10-10h-34.34c-5.523 0-10 4.477-10 10z" filter="url(#cjbsc)" mask="url(&quot;#cjbsd&quot;)"/></g><g><g><text dominant-baseline="text-before-edge" style="text-transform:uppercase" fill="#22252c" font-family="'Poppins-SemiBold','Poppins-SemiBold'" font-size="51.64" font-style="none" font-weight="400" transform="translate(8 14)"><tspan style="font-kerning:normal">A</tspan><tspan style="font-kerning:normal">+</tspan></text></g></g></g></svg>