<svg xmlns="http://www.w3.org/2000/svg" width="55" height="56" viewBox="0 0 55 56"><defs><mask id="kijmb" width="2" height="2" x="-1" y="-1"><path fill="#fff" d="M0 0h55v51H0z"/><path d="M10.183.84h34.34c5.524 0 10.001 4.477 10.001 10v29.965c0 5.522-4.477 10-10 10H10.183c-5.523 0-10-4.478-10-10V10.84c0-5.523 4.477-10 10-10z"/></mask><filter id="kijma" width="75.3" height="76" x="-10" y="-10" filterUnits="userSpaceOnUse"><feOffset dx=".3" dy="5" in="SourceGraphic" result="FeOffset1296Out"/><feGaussianBlur in="FeOffset1296Out" result="FeGaussianBlur1297Out" stdDeviation="0 0"/></filter><filter id="kijmc" width="200%" height="200%" x="-50%" y="-50%"><feGaussianBlur in="SourceGraphic" result="FeGaussianBlur1303Out" stdDeviation="0 0"/></filter><mask id="kijmd"><path fill="#fff" d="M10.183.84h34.34c5.524 0 10.001 4.477 10.001 10v29.965c0 5.522-4.477 10-10 10H10.183c-5.523 0-10-4.478-10-10V10.84c0-5.523 4.477-10 10-10z"/></mask></defs><g><g><g filter="url(#kijma)"><path fill="none" d="M10.183.84h34.34c5.524 0 10.001 4.477 10.001 10v29.965c0 5.522-4.477 10-10 10H10.183c-5.523 0-10-4.478-10-10V10.84c0-5.523 4.477-10 10-10z" mask="url(&quot;#kijmb&quot;)"/><path fill="#5c5c5c" fill-opacity=".55" d="M10.183.84h34.34c5.524 0 10.001 4.477 10.001 10v29.965c0 5.522-4.477 10-10 10H10.183c-5.523 0-10-4.478-10-10V10.84c0-5.523 4.477-10 10-10z"/></g><path fill="#fff" d="M10.183.84h34.34c5.524 0 10.001 4.477 10.001 10v29.965c0 5.522-4.477 10-10 10H10.183c-5.523 0-10-4.478-10-10V10.84c0-5.523 4.477-10 10-10z"/><path fill="#fff" d="M10.183.84h34.34c5.524 0 10.001 4.477 10.001 10v29.965c0 5.522-4.477 10-10 10H10.183c-5.523 0-10-4.478-10-10V10.84c0-5.523 4.477-10 10-10z"/><path fill="#fff" fill-opacity=".58" d="M0 56V-5h55v61zm.183-40.16v29.965c0 5.522 4.477 10 10 10h34.34c5.524 0 10.001-4.478 10.001-10V15.84c0-5.523-4.477-10-10-10H10.183c-5.523 0-10 4.477-10 10z" filter="url(#kijmc)" mask="url(&quot;#kijmd&quot;)"/></g><g><path fill="#22252c" d="M15 13h23v3H15zm-2 8h27v3H13zm4 7h18.714v3H17zm-5 8H41.57v3H12z"/></g></g></svg>