<svg xmlns="http://www.w3.org/2000/svg" width="55" height="56" viewBox="0 0 55 56"><defs><mask id="wqptb" width="2" height="2" x="-1" y="-1"><path fill="#fff" d="M0 0h55v51H0z"/><path d="M10.567.84h34.37c5.523 0 10 4.477 10 10v29.965c0 5.522-4.477 10-10 10h-34.37c-5.523 0-10-4.478-10-10V10.84c0-5.523 4.477-10 10-10z"/></mask><filter id="wqpta" width="75.3" height="76" x="-10" y="-10" filterUnits="userSpaceOnUse"><feOffset dx=".3" dy="5" in="SourceGraphic" result="FeOffset1327Out"/><feGaussianBlur in="FeOffset1327Out" result="FeGaussianBlur1328Out" stdDeviation="0 0"/></filter><filter id="wqptc" width="200%" height="200%" x="-50%" y="-50%"><feGaussianBlur in="SourceGraphic" result="FeGaussianBlur1334Out" stdDeviation="0 0"/></filter><mask id="wqptd"><path fill="#fff" d="M10.567.84h34.37c5.523 0 10 4.477 10 10v29.965c0 5.522-4.477 10-10 10h-34.37c-5.523 0-10-4.478-10-10V10.84c0-5.523 4.477-10 10-10z"/></mask></defs><g><g><g filter="url(#wqpta)"><path fill="none" d="M10.567.84h34.37c5.523 0 10 4.477 10 10v29.965c0 5.522-4.477 10-10 10h-34.37c-5.523 0-10-4.478-10-10V10.84c0-5.523 4.477-10 10-10z" mask="url(&quot;#wqptb&quot;)"/><path fill="#5c5c5c" fill-opacity=".55" d="M10.567.84h34.37c5.523 0 10 4.477 10 10v29.965c0 5.522-4.477 10-10 10h-34.37c-5.523 0-10-4.478-10-10V10.84c0-5.523 4.477-10 10-10z"/></g><path fill="#fff" d="M10.567.84h34.37c5.523 0 10 4.477 10 10v29.965c0 5.522-4.477 10-10 10h-34.37c-5.523 0-10-4.478-10-10V10.84c0-5.523 4.477-10 10-10z"/><path fill="#fff" d="M10.567.84h34.37c5.523 0 10 4.477 10 10v29.965c0 5.522-4.477 10-10 10h-34.37c-5.523 0-10-4.478-10-10V10.84c0-5.523 4.477-10 10-10z"/><path fill="#fff" fill-opacity=".58" d="M0 56V-5h55v61zm.566-40.16v29.965c0 5.522 4.478 10 10 10h34.37c5.524 0 10-4.478 10-10V15.84c0-5.523-4.476-10-10-10h-34.37c-5.522 0-10 4.477-10 10z" filter="url(#wqptc)" mask="url(&quot;#wqptd&quot;)"/></g><g><path fill="#22252c" d="M12 13h30v3H12zm6 8h24v3H18zm4.281 7H42v3H22.28zm-6.844 8H42v3H15.437z"/></g></g></svg>